<svg width="36" height="39" viewBox="0 0 36 39" fill="none" xmlns="http://www.w3.org/2000/svg">
<path fill-rule="evenodd" clip-rule="evenodd" d="M28.5439 25.5047L22.0001 19.5111L28.5439 13.5175L27.6516 12.564L18.1334 21.2819L8.61517 12.564L7.72284 13.5175L14.2666 19.5111L7.72284 25.5047L8.61517 26.4582L15.2333 20.3965L18.1334 23.0528L21.0334 20.3965L27.6516 26.4582L28.5439 25.5047ZM6.53704 10.0667C5.31453 10.0667 4.32349 11.1227 4.32349 12.4207V26.6014C4.32349 27.9016 5.30649 28.9555 6.53704 28.9555H29.7297C30.9522 28.9555 31.9432 27.8995 31.9432 26.6014V12.4207C31.9432 11.1206 30.9602 10.0667 29.7297 10.0667H6.53704Z" fill="#FFD74B"/>
</svg>
