<svg width="28" height="26" viewBox="0 0 28 26" fill="none" xmlns="http://www.w3.org/2000/svg">
<path fill-rule="evenodd" clip-rule="evenodd" d="M14 1.79688C9.77425 1.79688 5.53833 2.51113 4.00137 3.93476C2.72618 5.11583 2.3011 7.20233 2.15781 8.52341C2.15781 8.52341 2.13806 8.65396 2.13806 8.71011C2.13806 9.22816 2.58278 9.64365 3.12651 9.64365C3.19076 9.64365 5.56809 9.46157 7.00137 9.34956C7.03586 9.34484 7.07062 9.34021 7.10511 9.33091C7.63894 9.31699 8.06902 8.90612 8.06902 8.39738L8.07381 6.55816C8.07381 5.98869 8.5633 5.53117 9.16633 5.53117H18.8336C19.4367 5.53117 19.9263 5.98863 19.9263 6.55816L19.9311 8.39738C19.9311 8.90612 20.3611 9.31699 20.8949 9.33091C20.9292 9.34026 20.9639 9.34484 20.9988 9.34956C22.4322 9.46151 24.8095 9.64365 24.8735 9.64365C25.417 9.64365 25.8621 9.22816 25.8621 8.71011C25.8621 8.65396 25.8423 8.52341 25.8423 8.52341C25.6989 7.20233 25.2743 5.11588 23.9991 3.93476C22.4616 2.51113 18.2257 1.79688 14 1.79688ZM14 13.9335C12.9077 13.9335 12.023 14.769 12.023 15.8006C12.023 16.8322 12.9077 17.6677 14 17.6677C15.0923 17.6677 15.9769 16.8322 15.9769 15.8006C15.9769 14.769 15.0923 13.9335 14 13.9335ZM12.5173 9.73228V8.56533C12.5173 7.92121 11.9636 7.39839 11.2817 7.39839C10.5997 7.39839 10.0461 7.92126 10.0461 8.56533V9.73228L3.37838 16.4588C2.91892 16.8837 2.63218 17.4763 2.63218 18.13V20.0018C2.63218 21.0334 3.51694 21.8689 4.60918 21.8689H5.10346V23.036C5.10346 23.6801 5.65714 24.2028 6.3391 24.2028C7.02106 24.2028 7.57469 23.6801 7.57469 23.036V21.8689H20.4253V23.036C20.4253 23.6801 20.9787 24.2028 21.661 24.2028C22.3429 24.2028 22.8965 23.6801 22.8965 23.036V21.8689H23.3907C24.483 21.8689 25.3677 21.0334 25.3677 20.0018V18.13C25.3677 17.4762 25.081 16.8836 24.6215 16.4588L17.954 9.73228V8.56533C17.954 7.92121 17.4003 7.39839 16.7184 7.39839C16.0364 7.39839 15.4828 7.92126 15.4828 8.56533V9.73228H12.5173ZM14 12.0663C16.1846 12.0663 17.954 13.7374 17.954 15.8006C17.954 17.8638 16.1846 19.5351 14 19.5351C11.8154 19.5351 10.046 17.8639 10.046 15.8006C10.046 13.7374 11.8154 12.0663 14 12.0663Z" fill="#FFD74B"/>
</svg>
