<svg width="21" height="20" viewBox="0 0 21 20" fill="none" xmlns="http://www.w3.org/2000/svg">
<g clip-path="url(#clip0)">
<g opacity="0.5">
<path fill-rule="evenodd" clip-rule="evenodd" d="M10.2561 8.12436L11.3753 5.77557C11.6532 5.19396 12.1351 4.35764 12.8174 3.68149C13.4883 3.01585 14.292 2.5629 15.2634 2.5629C17.3615 2.5629 19.0189 4.30381 19.0189 6.39658C19.0189 7.9865 18.3254 9.10903 16.6805 10.8211C16.2586 11.2596 15.7779 11.7335 15.2459 12.2561C13.8589 13.6215 12.1339 15.3204 10.2561 17.5917C8.3784 15.3204 6.6534 13.6215 5.26638 12.2561C4.73436 11.7335 4.25241 11.2583 3.8318 10.8211C2.1869 9.10903 1.4934 7.9865 1.4934 6.39658C1.4934 4.30381 3.15081 2.5629 5.24886 2.5629C6.22027 2.5629 7.02394 3.01585 7.69491 3.68149C8.37715 4.35764 8.8591 5.19396 9.13701 5.77557L10.2561 8.12436ZM10.7468 19.0109C10.6866 19.0858 10.6114 19.146 10.5267 19.1873C10.4419 19.2286 10.3496 19.25 10.2561 19.25C10.1627 19.25 10.0704 19.2286 9.9856 19.1873C9.90084 19.146 9.8257 19.0858 9.76542 19.0109C7.76126 16.5138 5.94737 14.7283 4.45395 13.2591C1.86894 10.7134 0.241577 9.11297 0.241577 6.39658C0.241577 3.55414 2.48233 1.25 5.24886 1.25C7.25177 1.25 8.65255 2.62855 9.51005 3.88631C9.83552 4.36552 10.0834 4.82635 10.2561 5.18871C10.4727 4.73519 10.7221 4.29978 11.0022 3.88631C11.8597 2.62723 13.2605 1.25 15.2634 1.25C18.0299 1.25 20.2707 3.55414 20.2707 6.39658C20.2707 9.11297 18.6433 10.7134 16.0583 13.2591C14.5649 14.7296 12.751 16.5151 10.7468 19.0096V19.0109Z" fill="#192144"/>
</g>
</g>
<defs>
<clipPath id="clip0">
<rect width="20.0291" height="20" fill="white" transform="translate(0.241577)"/>
</clipPath>
</defs>
</svg>
