<svg width="21" height="20" viewBox="0 0 21 20" fill="none" xmlns="http://www.w3.org/2000/svg">
<g clip-path="url(#clip0)">
<path d="M5.24886 1.25C8.01538 1.25 10.2561 3.44375 10.2561 6.15C10.2561 3.44375 12.4969 1.25 15.2634 1.25C18.0299 1.25 20.2707 3.44375 20.2707 6.15C20.2707 10.2288 16.2223 11.6675 10.7468 18.16C10.6866 18.2313 10.6114 18.2886 10.5267 18.3279C10.4419 18.3672 10.3496 18.3876 10.2561 18.3876C10.1627 18.3876 10.0704 18.3672 9.9856 18.3279C9.90084 18.2886 9.8257 18.2313 9.76542 18.16C4.28996 11.6675 0.241577 10.2288 0.241577 6.15C0.241577 3.44375 2.48233 1.25 5.24886 1.25Z" fill="#F02323"/>
</g>
<defs>
<clipPath id="clip0">
<rect width="20.0291" height="20" fill="white" transform="translate(0.241577)"/>
</clipPath>
</defs>
</svg>
