<svg width="16" height="18" viewBox="0 0 16 18" fill="none" xmlns="http://www.w3.org/2000/svg">
<path d="M11.6578 15.1099C11.1439 15.1099 10.6415 14.9307 10.2142 14.5951C9.78692 14.2594 9.45389 13.7823 9.25723 13.2242C9.06057 12.666 9.00912 12.0518 9.10938 11.4592C9.20963 10.8667 9.4571 10.3224 9.82047 9.89519C10.1839 9.46798 10.6468 9.17705 11.1508 9.05918C11.6549 8.94132 12.1773 9.00181 12.6521 9.23301C13.1269 9.46422 13.5327 9.85574 13.8182 10.3581C14.1037 10.8604 14.2561 11.451 14.2561 12.0552C14.2553 12.8651 13.9813 13.6415 13.4942 14.2142C13.0071 14.7869 12.3466 15.109 11.6578 15.1099ZM11.6578 10.063C11.3226 10.063 10.995 10.1798 10.7163 10.3987C10.4376 10.6176 10.2205 10.9288 10.0922 11.2928C9.96394 11.6568 9.93038 12.0574 9.99577 12.4438C10.0612 12.8303 10.2225 13.1853 10.4595 13.4639C10.6965 13.7425 10.9985 13.9322 11.3272 14.0091C11.6559 14.086 11.9966 14.0465 12.3062 13.8957C12.6159 13.7449 12.8805 13.4896 13.0667 13.162C13.2529 12.8344 13.3523 12.4492 13.3523 12.0552C13.3518 11.527 13.1731 11.0206 12.8554 10.6472C12.5377 10.2737 12.107 10.0636 11.6578 10.063Z" fill="#1D2E5B"/>
<path d="M4.20182 15.1099C3.68792 15.1099 3.18557 14.9307 2.75828 14.5951C2.33099 14.2594 1.99796 13.7823 1.8013 13.2242C1.60464 12.666 1.55319 12.0518 1.65344 11.4592C1.7537 10.8667 2.00116 10.3224 2.36454 9.89519C2.72792 9.46798 3.19089 9.17705 3.69492 9.05918C4.19894 8.94132 4.72137 9.00181 5.19615 9.23301C5.67093 9.46422 6.07673 9.85574 6.36223 10.3581C6.64774 10.8604 6.80012 11.451 6.80012 12.0552C6.79938 12.8651 6.52539 13.6415 6.03827 14.2142C5.55116 14.7869 4.8907 15.109 4.20182 15.1099ZM4.20182 10.063C3.86667 10.063 3.53905 10.1798 3.26038 10.3987C2.98171 10.6176 2.76452 10.9288 2.63626 11.2928C2.50801 11.6568 2.47445 12.0574 2.53983 12.4438C2.60522 12.8303 2.76661 13.1853 3.0036 13.4639C3.24058 13.7425 3.54252 13.9322 3.87123 14.0091C4.19994 14.086 4.54066 14.0465 4.85029 13.8957C5.15993 13.7449 5.42458 13.4896 5.61078 13.162C5.79698 12.8344 5.89637 12.4492 5.89637 12.0552C5.89584 11.527 5.71714 11.0206 5.39947 10.6472C5.08179 10.2737 4.65108 10.0636 4.20182 10.063Z" fill="#1D2E5B"/>
<path d="M9.73736 4.4849C9.8564 4.48538 9.97434 4.45812 10.0844 4.40469C10.1944 4.35126 10.2943 4.27272 10.3783 4.1736C10.4624 4.07449 10.5289 3.95678 10.574 3.82727C10.6191 3.69776 10.6419 3.55902 10.6411 3.41908C10.6424 3.27983 10.6201 3.14168 10.5755 3.01269C10.5309 2.8837 10.4648 2.76647 10.3812 2.66785C10.2976 2.56923 10.198 2.4912 10.0885 2.43832C9.9789 2.38545 9.86146 2.35878 9.74301 2.3599C9.62433 2.35946 9.50673 2.38651 9.39694 2.4395C9.28715 2.4925 9.18732 2.57039 9.10313 2.66875C9.01895 2.7671 8.95207 2.88399 8.90631 3.01273C8.86054 3.14147 8.8368 3.27955 8.83643 3.41908C8.83606 3.55861 8.85907 3.69685 8.90414 3.82593C8.94922 3.95501 9.01548 4.07238 9.09914 4.17135C9.1828 4.27032 9.28222 4.34895 9.39173 4.40275C9.50123 4.45655 9.61868 4.48446 9.73736 4.4849Z" fill="#1D2E5B"/>
<path d="M11.0802 6.60994H9.84433C9.82406 6.60994 9.80416 6.60353 9.78671 6.59138C9.76927 6.57923 9.75493 6.56179 9.7452 6.54088L8.84879 4.60945C8.78563 4.46592 8.69461 4.34188 8.58309 4.24739C8.47158 4.1529 8.34271 4.0906 8.20692 4.06555C8.07112 4.04049 7.93221 4.05338 7.80144 4.10317C7.67067 4.15295 7.5517 4.23824 7.45418 4.35212L5.48116 6.68963C5.3154 6.88852 5.22132 7.15494 5.21851 7.43338C5.21851 8.01111 5.57436 8.21697 5.74099 8.33318C6.5459 8.87838 7.11273 9.27715 7.42367 9.49861C7.44021 9.51044 7.45387 9.52707 7.46337 9.54689C7.47286 9.56672 7.47787 9.58908 7.4779 9.61183V11.9068C7.4779 12.1927 7.66486 12.4381 7.90803 12.4524C7.96908 12.4558 8.0301 12.4447 8.08738 12.4196C8.14466 12.3946 8.19703 12.3561 8.2413 12.3066C8.28558 12.257 8.32085 12.1974 8.34497 12.1314C8.36909 12.0654 8.38158 11.9943 8.38166 11.9224V9.06697C8.3817 8.98264 8.36466 8.8995 8.33195 8.82444C8.29924 8.74938 8.25181 8.68456 8.19356 8.63533L7.14859 7.75179C7.13548 7.74076 7.12452 7.72655 7.11646 7.71013C7.10841 7.6937 7.10344 7.67544 7.10189 7.65656C7.10033 7.63769 7.10224 7.61864 7.10747 7.60071C7.1127 7.58277 7.12114 7.56636 7.13221 7.55257L8.31839 6.06541C8.33056 6.05011 8.34562 6.0384 8.36237 6.03125C8.37911 6.0241 8.39705 6.02171 8.41473 6.02427C8.43241 6.02683 8.44933 6.03426 8.46409 6.04597C8.47886 6.05768 8.49107 6.07333 8.49971 6.09164L9.11596 7.39918C9.15513 7.48206 9.21245 7.55112 9.28198 7.59917C9.3515 7.64722 9.4307 7.67252 9.51135 7.67244H11.0929C11.1541 7.67252 11.2147 7.65798 11.271 7.6297C11.3273 7.60142 11.3781 7.55998 11.4204 7.50791C11.4627 7.45584 11.4955 7.39422 11.5169 7.32678C11.5382 7.25935 11.5478 7.18751 11.5448 7.11562C11.5329 6.82974 11.3234 6.60994 11.0802 6.60994Z" fill="#1D2E5B"/>
</svg>
