<svg width="32" height="32" viewBox="0 0 32 32" fill="none" xmlns="http://www.w3.org/2000/svg">
<g clip-path="url(#clip0)">
<path d="M16 0.133301C9.42919 0.133301 4.09998 5.46252 4.09998 12.0333C4.09998 19.6771 9.84742 23.019 11.1179 24.5436C14.1692 28.2051 14.3416 31.8666 16 31.8666C17.6583 31.8666 17.8307 28.2051 20.882 24.5436C22.1525 23.019 27.9 19.6771 27.9 12.0333C27.9 5.46252 22.5708 0.133301 16 0.133301ZM16 19.9666C11.6188 19.9666 8.06664 16.4145 8.06664 12.0333C8.06664 7.65212 11.6188 4.09997 16 4.09997C20.3812 4.09997 23.9333 7.65212 23.9333 12.0333C23.9333 16.4145 20.3812 19.9666 16 19.9666ZM16 8.06663C13.8104 8.06663 12.0333 9.8437 12.0333 12.0333C12.0333 14.2229 13.8104 16 16 16C18.1896 16 19.9666 14.2229 19.9666 12.0333C19.9666 9.8437 18.1896 8.06663 16 8.06663Z" fill="#FFD74B"/>
<ellipse cx="16" cy="12.0332" rx="1.32222" ry="1.32222" fill="#161C35"/>
</g>
<defs>
<clipPath id="clip0">
<rect width="31.7333" height="31.7333" fill="white" transform="translate(0.133301 0.133301)"/>
</clipPath>
</defs>
</svg>
